<svg xmlns="http://www.w3.org/2000/svg" width="512" height="512" viewBox="0 0 512 512">
  <rect width="512" height="512" rx="102" fill="#BB86FC"/>
  <g transform="translate(256,256)">
    <ellipse cx="0" cy="-100" rx="26" ry="54" fill="#FFC107" transform="rotate(0)"/>
    <ellipse cx="0" cy="-100" rx="26" ry="54" fill="#FFC107" transform="rotate(30)"/>
    <ellipse cx="0" cy="-100" rx="26" ry="54" fill="#FFC107" transform="rotate(60)"/>
    <ellipse cx="0" cy="-100" rx="26" ry="54" fill="#FFC107" transform="rotate(90)"/>
    <ellipse cx="0" cy="-100" rx="26" ry="54" fill="#FFC107" transform="rotate(120)"/>
    <ellipse cx="0" cy="-100" rx="26" ry="54" fill="#FFC107" transform="rotate(150)"/>
    <ellipse cx="0" cy="-100" rx="26" ry="54" fill="#FFC107" transform="rotate(180)"/>
    <ellipse cx="0" cy="-100" rx="26" ry="54" fill="#FFC107" transform="rotate(210)"/>
    <ellipse cx="0" cy="-100" rx="26" ry="54" fill="#FFC107" transform="rotate(240)"/>
    <ellipse cx="0" cy="-100" rx="26" ry="54" fill="#FFC107" transform="rotate(270)"/>
    <ellipse cx="0" cy="-100" rx="26" ry="54" fill="#FFC107" transform="rotate(300)"/>
    <ellipse cx="0" cy="-100" rx="26" ry="54" fill="#FFC107" transform="rotate(330)"/>
    <circle cx="0" cy="0" r="54" fill="#8B5E3C"/>
    <circle cx="0" cy="0" r="38" fill="#5D3A1A"/>
    <circle cx="-10" cy="-14" r="4" fill="#8B5E3C"/>
    <circle cx="10" cy="-14" r="4" fill="#8B5E3C"/>
    <circle cx="0" cy="-18" r="4" fill="#8B5E3C"/>
    <circle cx="-18" cy="0" r="4" fill="#8B5E3C"/>
    <circle cx="18" cy="0" r="4" fill="#8B5E3C"/>
    <circle cx="-6" cy="-4" r="4" fill="#8B5E3C"/>
    <circle cx="6" cy="-4" r="4" fill="#8B5E3C"/>
    <circle cx="0" cy="4" r="4" fill="#8B5E3C"/>
    <circle cx="-12" cy="10" r="3.5" fill="#8B5E3C"/>
    <circle cx="12" cy="10" r="3.5" fill="#8B5E3C"/>
    <circle cx="0" cy="16" r="3.5" fill="#8B5E3C"/>
    <circle cx="-6" cy="14" r="3" fill="#8B5E3C"/>
    <circle cx="6" cy="14" r="3" fill="#8B5E3C"/>
  </g>
</svg>
