<svg xmlns="http://www.w3.org/2000/svg" width="192" height="192" viewBox="0 0 192 192">
  <rect width="192" height="192" rx="38" fill="#BB86FC"/>
  <g transform="translate(96,96)">
    <ellipse cx="0" cy="-38" rx="10" ry="20" fill="#FFC107" transform="rotate(0)"/>
    <ellipse cx="0" cy="-38" rx="10" ry="20" fill="#FFC107" transform="rotate(30)"/>
    <ellipse cx="0" cy="-38" rx="10" ry="20" fill="#FFC107" transform="rotate(60)"/>
    <ellipse cx="0" cy="-38" rx="10" ry="20" fill="#FFC107" transform="rotate(90)"/>
    <ellipse cx="0" cy="-38" rx="10" ry="20" fill="#FFC107" transform="rotate(120)"/>
    <ellipse cx="0" cy="-38" rx="10" ry="20" fill="#FFC107" transform="rotate(150)"/>
    <ellipse cx="0" cy="-38" rx="10" ry="20" fill="#FFC107" transform="rotate(180)"/>
    <ellipse cx="0" cy="-38" rx="10" ry="20" fill="#FFC107" transform="rotate(210)"/>
    <ellipse cx="0" cy="-38" rx="10" ry="20" fill="#FFC107" transform="rotate(240)"/>
    <ellipse cx="0" cy="-38" rx="10" ry="20" fill="#FFC107" transform="rotate(270)"/>
    <ellipse cx="0" cy="-38" rx="10" ry="20" fill="#FFC107" transform="rotate(300)"/>
    <ellipse cx="0" cy="-38" rx="10" ry="20" fill="#FFC107" transform="rotate(330)"/>
    <circle cx="0" cy="0" r="20" fill="#8B5E3C"/>
    <circle cx="0" cy="0" r="14" fill="#5D3A1A"/>
  </g>
</svg>
